<svg width="1202" height="300" viewBox="0 0 1202 300" fill="none" xmlns="http://www.w3.org/2000/svg">
<g clip-path="url(#clip0_14_2)">
<path d="M225 65C243.778 65 259 50.4492 259 32.5C259 14.5507 243.778 0 225 0C206.222 0 191 14.5507 191 32.5C191 50.4492 206.222 65 225 65Z" fill="#2F5588"/>
<path d="M1086.5 104C1102.24 104 1115 90.7924 1115 74.5C1115 58.2076 1102.24 45 1086.5 45C1070.76 45 1058 58.2076 1058 74.5C1058 90.7924 1070.76 104 1086.5 104Z" fill="#2F5588"/>
<path d="M85.5 263C99.031 263 110 252.031 110 238.5C110 224.969 99.031 214 85.5 214C71.969 214 61 224.969 61 238.5C61 252.031 71.969 263 85.5 263Z" fill="#2F5588"/>
<path d="M20 177C31.0457 177 40 167.822 40 156.5C40 145.178 31.0457 136 20 136C8.9543 136 0 145.178 0 156.5C0 167.822 8.9543 177 20 177Z" fill="#2F5588"/>
<path d="M1067 161C1078.05 161 1087 151.822 1087 140.5C1087 129.178 1078.05 120 1067 120C1055.95 120 1047 129.178 1047 140.5C1047 151.822 1055.95 161 1067 161Z" fill="#2F5588"/>
<path d="M143 156C165.644 156 184 137.868 184 115.5C184 93.1325 165.644 75 143 75C120.356 75 102 93.1325 102 115.5C102 137.868 120.356 156 143 156Z" fill="#3893F7"/>
<path d="M1169 271C1187.23 271 1202 256.449 1202 238.5C1202 220.551 1187.23 206 1169 206C1150.77 206 1136 220.551 1136 238.5C1136 256.449 1150.77 271 1169 271Z" fill="#3893F7"/>
<path d="M964 193C984.435 193 1001 176.658 1001 156.5C1001 136.342 984.435 120 964 120C943.565 120 927 136.342 927 156.5C927 176.658 943.565 193 964 193Z" fill="#3893F7"/>
<path d="M204.5 300C215.822 300 225 290.822 225 279.5C225 268.178 215.822 259 204.5 259C193.178 259 184 268.178 184 279.5C184 290.822 193.178 300 204.5 300Z" fill="#3893F7"/>
</g>
<defs>
<clipPath id="clip0_14_2">
<rect width="1202" height="300" fill="white"/>
</clipPath>
</defs>
</svg>
