<svg width="1986" height="512" viewBox="0 0 1986 512" fill="none" xmlns="http://www.w3.org/2000/svg">
<path d="M226 145.667C226 114.92 250.957 90 281.75 90H616.25C647 90 672 114.92 672 145.667V368.333C672 399.037 647 424 616.25 424H281.75C250.957 424 226 399.037 226 368.333V145.667ZM267.812 145.667V164.889L418.076 288.052C436.021 302.838 461.979 302.838 479.924 288.052L630.188 164.889V144.884C630.188 138.012 623.916 130.967 616.25 130.967H281.75C274.05 130.967 267.812 138.012 267.812 144.884V145.667ZM267.812 218.903V368.333C267.812 375.988 274.05 382.25 281.75 382.25H616.25C623.916 382.25 630.188 375.988 630.188 368.333V218.903L506.492 320.321C473.042 347.719 424.958 347.719 390.724 320.321L267.812 218.903Z" fill="#465FB1"/>
<path d="M1180.8 275.767C1191.73 264.834 1191.73 247.078 1180.8 236.145L1040.79 96.1999C1029.85 85.2667 1012.09 85.2667 1001.15 96.1999C990.211 107.133 990.211 124.889 1001.15 135.822L1093.47 228.011H825.002C809.513 228.011 797 240.519 797 256C797 271.481 809.513 283.989 825.002 283.989H1093.38L1001.24 376.178C990.298 387.111 990.298 404.867 1001.24 415.8C1012.17 426.733 1029.94 426.733 1040.88 415.8L1180.88 275.855L1180.8 275.767Z" fill="#465FB1"/>
<path d="M1408.05 194.5C1379.18 194.5 1355.8 171.118 1355.8 142.25C1355.8 113.382 1379.18 90 1408.05 90C1436.92 90 1460.3 113.382 1460.3 142.25C1460.3 171.118 1436.92 194.5 1408.05 194.5ZM1648.4 194.5C1619.53 194.5 1596.15 171.118 1596.15 142.25C1596.15 113.382 1619.53 90 1648.4 90C1677.27 90 1700.65 113.382 1700.65 142.25C1700.65 171.118 1677.27 194.5 1648.4 194.5ZM1314 285.088C1314 246.619 1345.22 215.4 1383.69 215.4H1411.58C1421.96 215.4 1431.82 217.686 1440.71 221.735C1439.86 226.438 1439.47 231.336 1439.47 236.3C1439.47 261.249 1450.44 283.652 1467.75 299C1467.62 299 1467.48 299 1467.29 299H1327.91C1320.27 299 1314 292.73 1314 285.088ZM1578.71 299C1578.58 299 1578.45 299 1578.25 299C1595.63 283.652 1606.53 261.249 1606.53 236.3C1606.53 231.336 1606.08 226.503 1605.29 221.735C1614.18 217.621 1624.04 215.4 1634.42 215.4H1662.31C1700.78 215.4 1732 246.619 1732 285.088C1732 292.795 1725.73 299 1718.09 299H1578.71ZM1585.7 236.3C1585.7 270.916 1557.62 299 1523 299C1488.38 299 1460.3 270.916 1460.3 236.3C1460.3 201.684 1488.38 173.6 1523 173.6C1557.62 173.6 1585.7 201.684 1585.7 236.3ZM1397.6 406.962C1397.6 358.892 1436.59 319.9 1484.66 319.9H1561.34C1609.41 319.9 1648.4 358.892 1648.4 406.962C1648.4 416.562 1640.63 424.4 1630.96 424.4H1415.04C1405.44 424.4 1397.6 416.628 1397.6 406.962Z" fill="#465FB1"/>
<path d="M1523 299C1557.63 299 1585.7 270.928 1585.7 236.3C1585.7 201.672 1557.63 173.6 1523 173.6C1488.37 173.6 1460.3 201.672 1460.3 236.3C1460.3 270.928 1488.37 299 1523 299Z" fill="white"/>
<path d="M1523 299C1557.63 299 1585.7 270.932 1585.7 236.3C1585.7 201.668 1557.63 173.6 1523 173.6C1488.37 173.6 1460.3 201.668 1460.3 236.3C1460.3 270.932 1488.37 299 1523 299ZM1485.18 250.505C1484.28 247.15 1487.02 244.138 1490.5 244.138H1555.5C1558.98 244.138 1561.72 247.15 1560.82 250.505C1556.31 267.16 1541.08 279.406 1523 279.406C1504.92 279.406 1489.69 267.16 1485.18 250.505ZM1513.6 225.719L1513.54 225.67C1513.5 225.621 1513.44 225.548 1513.37 225.45C1513.23 225.254 1512.98 224.96 1512.69 224.618C1512.07 223.932 1511.22 223.001 1510.19 222.095C1508.04 220.184 1505.59 218.666 1503.41 218.666C1501.22 218.666 1498.78 220.184 1496.62 222.095C1495.59 223.001 1494.74 223.932 1494.13 224.618C1493.83 224.96 1493.58 225.254 1493.44 225.45C1493.37 225.548 1493.29 225.621 1493.27 225.67L1493.22 225.719C1492.7 226.405 1491.82 226.675 1491.04 226.405C1490.25 226.136 1489.69 225.401 1489.69 224.544C1489.69 220.16 1491.33 215.825 1493.76 212.592C1496.16 209.408 1499.61 206.909 1503.41 206.909C1507.2 206.909 1510.66 209.408 1513.05 212.592C1515.48 215.825 1517.12 220.16 1517.12 224.544C1517.12 225.376 1516.58 226.136 1515.78 226.405C1514.97 226.675 1514.08 226.405 1513.6 225.719ZM1552.78 225.719L1552.73 225.67C1552.68 225.621 1552.64 225.548 1552.56 225.45C1552.42 225.254 1552.17 224.96 1551.87 224.618C1551.26 223.932 1550.41 223.001 1549.38 222.095C1547.22 220.184 1544.78 218.666 1542.59 218.666C1540.41 218.666 1537.96 220.184 1535.81 222.095C1534.78 223.001 1533.93 223.932 1533.31 224.618C1533.02 224.96 1532.77 225.254 1532.63 225.45C1532.55 225.548 1532.48 225.621 1532.46 225.67L1532.41 225.719C1531.89 226.405 1531.01 226.675 1530.22 226.405C1529.44 226.136 1528.88 225.401 1528.88 224.544C1528.88 220.16 1530.52 215.825 1532.95 212.592C1535.34 209.408 1538.8 206.909 1542.59 206.909C1546.39 206.909 1549.84 209.408 1552.24 212.592C1554.67 215.825 1556.31 220.16 1556.31 224.544C1556.31 225.376 1555.77 226.136 1554.96 226.405C1554.15 226.675 1553.27 226.405 1552.78 225.719Z" fill="#465FB1"/>
<path d="M1648.4 194.5C1677.26 194.5 1700.65 171.107 1700.65 142.25C1700.65 113.393 1677.26 90 1648.4 90C1619.54 90 1596.15 113.393 1596.15 142.25C1596.15 171.107 1619.54 194.5 1648.4 194.5Z" fill="white"/>
<path d="M1408.05 194.5C1436.91 194.5 1460.3 171.107 1460.3 142.25C1460.3 113.393 1436.91 90 1408.05 90C1379.19 90 1355.8 113.393 1355.8 142.25C1355.8 171.107 1379.19 194.5 1408.05 194.5Z" fill="white"/>
<path d="M1648.07 195.153C1677.11 195.153 1700.65 171.617 1700.65 142.577C1700.65 113.536 1677.11 90 1648.07 90C1619.04 90 1595.5 113.536 1595.5 142.577C1595.5 171.617 1619.04 195.153 1648.07 195.153ZM1629.2 156.85C1632.88 161.102 1639.16 165.579 1648.07 165.579C1656.99 165.579 1663.27 161.102 1666.95 156.85C1668.14 155.474 1670.21 155.331 1671.59 156.521C1672.96 157.713 1673.11 159.787 1671.92 161.163C1667.34 166.421 1659.39 172.151 1648.07 172.151C1636.75 172.151 1628.81 166.421 1624.23 161.163C1623.04 159.787 1623.18 157.713 1624.56 156.521C1625.93 155.331 1628.01 155.474 1629.2 156.85ZM1640.19 136.99L1640.14 136.949C1640.11 136.908 1640.07 136.847 1640 136.764C1639.88 136.6 1639.67 136.354 1639.43 136.066C1638.92 135.491 1638.19 134.711 1637.33 133.951C1635.53 132.349 1633.47 131.075 1631.64 131.075C1629.82 131.075 1627.76 132.349 1625.95 133.951C1625.09 134.711 1624.37 135.491 1623.86 136.066C1623.61 136.354 1623.4 136.6 1623.29 136.764C1623.22 136.847 1623.16 136.908 1623.14 136.949L1623.1 136.99C1622.67 137.565 1621.93 137.791 1621.27 137.565C1620.62 137.339 1620.14 136.723 1620.14 136.004C1620.14 132.328 1621.52 128.693 1623.55 125.982C1625.57 123.312 1628.46 121.217 1631.64 121.217C1634.83 121.217 1637.72 123.312 1639.73 125.982C1641.77 128.693 1643.14 132.328 1643.14 136.004C1643.14 136.703 1642.69 137.339 1642.01 137.565C1641.34 137.791 1640.6 137.565 1640.19 136.99ZM1673.05 136.99L1673 136.949C1672.96 136.908 1672.92 136.847 1672.86 136.764C1672.74 136.6 1672.53 136.354 1672.28 136.066C1671.78 135.491 1671.06 134.711 1670.19 133.951C1668.39 132.349 1666.33 131.075 1664.51 131.075C1662.68 131.075 1660.62 132.349 1658.82 133.951C1657.96 134.711 1657.23 135.491 1656.72 136.066C1656.47 136.354 1656.27 136.6 1656.15 136.764C1656.08 136.847 1656.02 136.908 1656 136.949L1655.96 136.99C1655.53 137.565 1654.79 137.791 1654.13 137.565C1653.47 137.339 1653 136.723 1653 136.004C1653 132.328 1654.38 128.693 1656.41 125.982C1658.43 123.312 1661.32 121.217 1664.51 121.217C1667.69 121.217 1670.58 123.312 1672.6 125.982C1674.63 128.693 1676.01 132.328 1676.01 136.004C1676.01 136.703 1675.55 137.339 1674.88 137.565C1674.2 137.791 1673.46 137.565 1673.05 136.99Z" fill="#465FB1"/>
<path d="M1408.05 194.5C1436.91 194.5 1460.3 171.11 1460.3 142.25C1460.3 113.39 1436.91 90 1408.05 90C1379.19 90 1355.8 113.39 1355.8 142.25C1355.8 171.11 1379.19 194.5 1408.05 194.5ZM1389.29 156.435C1392.95 160.66 1399.19 165.109 1408.05 165.109C1416.91 165.109 1423.15 160.66 1426.81 156.435C1427.99 155.068 1430.05 154.925 1431.42 156.109C1432.78 157.292 1432.93 159.354 1431.75 160.721C1427.19 165.946 1419.3 171.641 1408.05 171.641C1396.8 171.641 1388.91 165.946 1384.35 160.721C1383.17 159.354 1383.32 157.292 1384.68 156.109C1386.05 154.925 1388.11 155.068 1389.29 156.435ZM1398.33 132.453C1398.33 136.066 1395.42 138.984 1391.8 138.984C1388.19 138.984 1385.27 136.066 1385.27 132.453C1385.27 128.84 1388.19 125.922 1391.8 125.922C1395.42 125.922 1398.33 128.84 1398.33 132.453ZM1424.46 138.984C1420.84 138.984 1417.93 136.066 1417.93 132.453C1417.93 128.84 1420.84 125.922 1424.46 125.922C1428.07 125.922 1430.99 128.84 1430.99 132.453C1430.99 136.066 1428.07 138.984 1424.46 138.984Z" fill="#465FB1"/>
</svg>
