<svg width="1986" height="512" viewBox="0 0 1986 512" fill="none" xmlns="http://www.w3.org/2000/svg">
<path d="M1541.58 93.0051C1547.8 87.4439 1557.28 87.7056 1563.17 93.594L1568.41 98.8281C1574.29 104.717 1574.56 114.203 1568.99 120.419L1512.86 183.163C1511.16 185.061 1510.18 187.547 1510.18 190.164V204.165C1510.18 209.923 1505.47 214.634 1499.71 214.634H1489.37C1486.36 214.634 1483.55 215.877 1481.58 218.101L1303.88 416.738C1299.7 421.383 1293.81 424 1287.59 424C1281.84 424 1276.27 421.71 1272.22 417.588L1244.35 389.782C1240.29 385.66 1238 380.164 1238 374.406C1238 368.191 1240.62 362.302 1245.26 358.18L1318.28 292.884C1320.5 290.922 1321.75 288.043 1321.75 285.099V266.975C1321.75 261.218 1326.46 256.507 1332.21 256.507H1354.85C1357.4 256.507 1359.89 255.526 1361.85 253.825L1541.58 93.0051ZM1520.64 277.444C1523 277.444 1525.03 279.014 1525.68 281.238L1535.37 315.064L1569.19 324.747C1571.42 325.402 1572.99 327.43 1572.99 329.785C1572.99 332.141 1571.42 334.169 1569.19 334.823L1535.37 344.506L1525.68 378.332C1525.03 380.557 1523 382.127 1520.64 382.127C1518.29 382.127 1516.26 380.557 1515.61 378.332L1505.92 344.506L1472.1 334.823C1469.87 334.169 1468.3 332.141 1468.3 329.785C1468.3 327.43 1469.87 325.402 1472.1 324.747L1505.92 315.064L1515.61 281.238C1516.26 279.014 1518.29 277.444 1520.64 277.444ZM1295.38 134.682L1305.06 168.508L1338.89 178.191C1341.11 178.845 1342.68 180.874 1342.68 183.229C1342.68 185.584 1341.11 187.612 1338.89 188.267L1305.06 197.95L1295.38 231.776C1294.73 234 1292.7 235.57 1290.34 235.57C1287.99 235.57 1285.96 234 1285.3 231.776L1275.62 197.95L1241.79 188.267C1239.57 187.612 1238 185.584 1238 183.229C1238 180.874 1239.57 178.845 1241.79 178.191L1275.62 168.508L1285.3 134.682C1285.96 132.458 1287.99 130.887 1290.34 130.887C1292.7 130.887 1294.73 132.458 1295.38 134.682ZM1384.56 89.0141C1386.98 89.0141 1389.07 90.6498 1389.66 93.0051L1394.11 110.867L1411.97 115.316C1414.33 115.905 1415.96 117.998 1415.96 120.419C1415.96 122.84 1414.33 124.933 1411.97 125.522L1394.11 129.971L1389.66 147.833C1389.07 150.188 1386.98 151.824 1384.56 151.824C1382.14 151.824 1380.04 150.188 1379.45 147.833L1375 129.971L1357.14 125.522C1354.79 124.933 1353.15 122.84 1353.15 120.419C1353.15 117.998 1354.79 115.905 1357.14 115.316L1375 110.867L1379.45 93.0051C1380.04 90.6498 1382.14 89.0141 1384.56 89.0141V89.0141Z" fill="#465FB1"/>
<path d="M1738.72 165.044L1721.6 214H1914.4L1897.27 165.044C1894.32 156.644 1886.38 151 1877.46 151H1758.54C1749.62 151 1741.68 156.644 1738.72 165.044V165.044ZM1675.99 217.15L1699.09 151.197C1707.95 125.931 1731.77 109 1758.54 109H1877.46C1904.23 109 1928.05 125.931 1936.91 151.197L1960.01 217.15C1975.24 223.45 1986 238.478 1986 256V350.5V382C1986 393.616 1976.62 403 1965 403H1944C1932.38 403 1923 393.616 1923 382V350.5H1713V382C1713 393.616 1703.62 403 1692 403H1671C1659.38 403 1650 393.616 1650 382V350.5V256C1650 238.478 1660.76 223.45 1675.99 217.15ZM1734 277C1734 265.384 1724.62 256 1713 256C1701.38 256 1692 265.384 1692 277C1692 288.616 1701.38 298 1713 298C1724.62 298 1734 288.616 1734 277ZM1923 298C1934.62 298 1944 288.616 1944 277C1944 265.384 1934.62 256 1923 256C1911.38 256 1902 265.384 1902 277C1902 288.616 1911.38 298 1923 298Z" fill="#465FB1"/>
<path d="M1008.07 94.1517C999.869 85.9494 986.551 85.9494 978.35 94.1517L899.623 172.894C891.422 181.096 891.422 194.417 899.623 202.619L910.12 213.118C918.321 221.321 931.638 221.321 939.839 213.118L942.463 210.494L1012.53 280.509L1009.91 283.133C1001.71 291.336 1001.71 304.656 1009.91 312.859L1020.4 323.357C1028.6 331.56 1041.92 331.56 1050.12 323.357L1128.85 244.615C1137.05 236.413 1137.05 223.092 1128.85 214.89L1118.35 204.391C1110.15 196.189 1096.83 196.189 1088.63 204.391L1086.01 207.016L1015.94 136.935L1018.57 134.31C1026.77 126.108 1026.77 112.787 1018.57 104.585L1008.07 94.0861V94.1517ZM908.348 283.133C900.148 274.931 886.83 274.931 878.629 283.133L805.151 356.626C796.95 364.828 796.95 378.149 805.151 386.351L836.641 417.848C844.842 426.051 858.16 426.051 866.361 417.848L939.839 344.355C948.04 336.153 948.04 322.833 939.839 314.63L938.921 313.712L977.497 275.193L947.777 245.468L909.267 283.986L908.348 283.068V283.133Z" fill="#465FB1"/>
<path d="M466.337 383.808L445.6 400.361C444.222 401.474 442.516 402.062 440.744 402.062C436.478 402.062 433 398.595 433 394.342V213.625C433 144.27 489.438 88 559 88C628.562 88 685 144.27 685 213.625V394.342C685 398.595 681.522 402.062 677.256 402.062C675.484 402.062 673.778 401.474 672.4 400.361L651.663 383.808C649.497 382.041 646.741 381.125 643.919 381.125C640.047 381.125 636.372 382.957 634.075 386.032L609.4 418.813C607.431 421.43 604.281 423 601 423C597.719 423 594.569 421.43 592.6 418.813L567.4 385.312C565.431 382.695 562.281 381.125 559 381.125C555.719 381.125 552.569 382.695 550.6 385.312L525.4 418.813C523.431 421.43 520.281 423 517 423C513.719 423 510.569 421.43 508.6 418.813L483.925 386.032C481.562 382.957 477.953 381.125 474.081 381.125C471.259 381.125 468.569 382.106 466.403 383.808H466.337ZM538 213.625C538 202.044 528.616 192.688 517 192.688C505.384 192.688 496 202.044 496 213.625C496 225.206 505.384 234.562 517 234.562C528.616 234.562 538 225.206 538 213.625ZM601 234.562C612.616 234.562 622 225.206 622 213.625C622 202.044 612.616 192.688 601 192.688C589.384 192.688 580 202.044 580 213.625C580 225.206 589.384 234.562 601 234.562Z" fill="#465FB1"/>
<path d="M125.625 156.57C125.625 150.551 121.83 145.251 116.988 141.652C109.398 135.96 104.688 128.108 104.688 119.406C104.688 102.067 123.466 88 146.562 88C169.659 88 188.438 102.067 188.438 119.406C188.438 128.108 183.727 135.96 176.137 141.652C171.295 145.251 167.5 150.551 167.5 156.57C167.5 164.945 174.305 171.75 182.68 171.75H219.844C237.183 171.75 251.25 185.817 251.25 203.156V240.32C251.25 248.695 258.055 255.5 266.43 255.5C272.449 255.5 277.749 251.705 281.348 246.863C287.04 239.273 294.892 234.562 303.594 234.562C320.933 234.562 335 253.341 335 276.438C335 299.534 320.933 318.312 303.594 318.312C294.892 318.312 287.04 313.602 281.348 306.012C277.749 301.17 272.449 297.375 266.43 297.375C258.055 297.375 251.25 304.18 251.25 312.555V391.594C251.25 408.933 237.183 423 219.844 423H182.68C174.305 423 167.5 416.195 167.5 407.82C167.5 401.801 171.295 396.501 176.137 392.902C183.727 387.21 188.438 379.358 188.438 370.656C188.438 353.317 169.659 339.25 146.562 339.25C123.466 339.25 104.688 353.317 104.688 370.656C104.688 379.358 109.398 387.21 116.988 392.902C121.83 396.501 125.625 401.801 125.625 407.82C125.625 416.195 118.82 423 110.445 423H31.4062C14.0674 423 0 408.933 0 391.594V312.555C0 304.18 6.80469 297.375 15.1797 297.375C21.1992 297.375 26.499 301.17 30.0977 306.012C35.79 313.602 43.6416 318.312 52.3438 318.312C69.6826 318.312 83.75 299.534 83.75 276.438C83.75 253.341 69.6826 234.562 52.3438 234.562C43.6416 234.562 35.79 239.273 30.0977 246.863C26.499 251.705 21.1992 255.5 15.1797 255.5C6.80469 255.5 0 248.695 0 240.32V203.156C0 185.817 14.0674 171.75 31.4062 171.75H110.445C118.82 171.75 125.625 164.945 125.625 156.57Z" fill="#465FB1"/>
</svg>
