<svg width="1986" height="512" viewBox="0 0 1986 512" fill="none" xmlns="http://www.w3.org/2000/svg">
<g clip-path="url(#clip0_70_2)">
<path d="M1426.05 77.9922C1475.19 77.9922 1515.02 117.835 1515.02 166.996C1515.02 216.157 1475.19 256 1426.05 256C1376.9 256 1337.07 216.157 1337.07 166.996C1337.07 117.835 1376.9 77.9922 1426.05 77.9922ZM1415.69 327.759L1402.76 306.204C1398.31 298.764 1403.66 289.376 1412.28 289.376H1426.05H1439.74C1448.36 289.376 1453.71 298.833 1449.26 306.204L1436.33 327.759L1459.55 413.912L1487.01 301.823C1540.68 310.167 1581.76 356.616 1581.76 412.661C1581.76 424.482 1572.17 434.008 1560.42 434.008H1454.62H1397.48H1291.67C1279.93 434.008 1270.33 424.412 1270.33 412.661C1270.33 356.616 1311.42 310.167 1365.08 301.823L1392.54 413.912L1415.76 327.759H1415.69Z" fill="#465FB1"/>
<path d="M1145.33 77.9922C1214.26 77.9922 1270.13 123.397 1270.13 179.434C1270.13 202.663 1260.42 223.936 1244.33 240.981C1251.58 260.246 1266.69 276.525 1266.94 276.705C1270.17 280.119 1271.03 285.118 1269.2 289.386C1267.3 293.653 1263.13 296.481 1258.44 296.481C1228.46 296.481 1205.25 283.923 1190.62 273.925C1176.97 278.339 1161.27 280.875 1145.33 280.875C1076.38 280.875 1020.95 235.455 1020.95 179.434C1020.95 123.412 1076.38 77.9922 1145.33 77.9922ZM1145.28 257.465C1158.32 257.465 1171.18 255.454 1183.49 251.554L1194.58 248.079L1204.09 254.786C1211.04 259.721 1220.61 265.213 1232.13 268.929C1228.53 263.018 1225.12 256.371 1222.44 249.299L1217.26 235.643L1227.31 224.977C1236.1 215.572 1246.7 200.015 1246.7 179.434C1246.7 136.394 1201.24 101.402 1145.29 101.402C1089.34 101.402 1043.88 136.394 1043.88 179.434C1043.88 222.473 1089.35 257.465 1145.28 257.465Z" fill="#465FB1"/>
<path d="M1156.99 127.974C1162.27 129.026 1165.7 134.146 1164.65 139.408L1164.18 141.714C1163.1 147.117 1161.11 152.258 1158.33 156.932H1187.58C1192.96 156.932 1197.33 161.283 1197.33 166.645C1197.33 171.765 1193.37 175.954 1188.33 176.338C1189.9 178.058 1190.83 180.345 1190.83 182.834C1190.83 187.569 1187.42 191.515 1182.93 192.365C1183.82 193.822 1184.33 195.562 1184.33 197.404C1184.33 201.714 1181.51 205.377 1177.61 206.632C1177.75 207.299 1177.83 208.007 1177.83 208.736C1177.83 214.099 1173.46 218.45 1168.08 218.45H1153.15C1149.29 218.45 1145.53 217.316 1142.32 215.192L1134.5 209.991C1129.07 206.389 1125.82 200.318 1125.82 193.822V186.072V176.358V171.32C1125.82 165.411 1128.53 159.846 1133.14 156.143L1134.64 154.949C1140.02 150.658 1143.7 144.628 1145.04 137.91L1145.51 135.603C1146.57 130.342 1151.71 126.922 1156.99 127.974ZM1099.82 160.169H1112.82C1116.42 160.169 1119.32 163.063 1119.32 166.645V211.974C1119.32 215.556 1116.42 218.45 1112.82 218.45H1099.82C1096.22 218.45 1093.32 215.556 1093.32 211.974V166.645C1093.32 163.063 1096.22 160.169 1099.82 160.169Z" fill="#465FB1"/>
<path d="M559.713 256.008C608.86 256.008 648.692 216.165 648.692 167.004C648.692 117.843 608.86 78 559.713 78C510.566 78 470.734 117.843 470.734 167.004C470.734 216.165 510.566 256.008 559.713 256.008ZM527.945 289.384C459.473 289.384 404 344.873 404 413.364C404 424.768 413.245 434.016 424.646 434.016H694.781C706.181 434.016 715.427 424.768 715.427 413.364C715.427 344.873 659.954 289.384 591.482 289.384H527.945Z" fill="#465FB1"/>
<path d="M837.111 77.9922C769.48 77.9922 714.681 122.534 714.681 177.505C714.681 200.293 724.204 221.162 739.987 237.883C732.87 256.781 718.048 272.751 717.809 272.928C714.64 276.277 713.803 281.18 715.597 285.367C717.451 289.553 721.546 292.328 726.147 292.328C755.562 292.328 778.329 280.009 792.677 270.201C806.07 274.531 821.471 277.018 837.111 277.018C904.742 277.018 959.124 232.462 959.124 177.505C959.124 122.548 904.742 77.9922 837.111 77.9922ZM837.159 254.054C824.365 254.054 811.752 252.08 799.671 248.255L788.789 244.846L779.462 251.425C772.647 256.266 763.257 261.654 751.961 265.299C755.488 259.5 758.833 252.98 761.469 246.043L766.548 232.647L756.686 222.183C748.062 212.957 737.66 197.695 737.66 177.505C737.66 135.284 782.26 100.957 837.145 100.957C892.029 100.957 936.63 135.284 936.63 177.505C936.63 219.727 892.019 254.054 837.159 254.054Z" fill="#465FB1"/>
<path d="M848.226 147.888H825.997L817.765 135.537C816.532 133.678 817.852 131.212 820.075 131.212H854.148C856.371 131.212 857.691 133.678 856.458 135.537L848.226 147.888ZM825.997 153.447H848.226C848.886 153.882 849.633 154.368 850.484 154.907C860.33 161.212 881.57 174.797 881.57 203.477C881.57 212.684 874.102 220.154 864.898 220.154H809.325C800.12 220.154 792.653 212.684 792.653 203.477C792.653 174.797 813.892 161.212 823.739 154.907C824.573 154.368 825.337 153.882 825.997 153.447ZM840.602 170.124C840.602 168.196 839.039 166.632 837.111 166.632C835.184 166.632 833.621 168.196 833.621 170.124V171.166C832.648 171.375 831.727 171.67 830.859 172.052C828.255 173.233 826.014 175.422 825.458 178.601C825.145 180.373 825.32 182.076 826.048 183.639C826.778 185.167 827.907 186.244 829.053 187.026C831.068 188.399 833.725 189.198 835.756 189.806L836.139 189.927C838.553 190.657 840.202 191.213 841.227 191.96C841.661 192.273 841.817 192.515 841.887 192.672C841.939 192.811 842.043 193.123 841.922 193.836C841.817 194.444 841.488 194.947 840.532 195.364C839.473 195.816 837.754 196.042 835.531 195.695C834.489 195.521 832.63 194.896 830.981 194.323C830.599 194.183 830.234 194.062 829.886 193.957C828.064 193.349 826.101 194.339 825.493 196.163C824.885 197.988 825.875 199.951 827.699 200.559C827.907 200.628 828.168 200.715 828.463 200.819C829.835 201.289 831.988 202.018 833.638 202.4V203.477C833.638 205.405 835.201 206.968 837.129 206.968C839.057 206.968 840.619 205.405 840.619 203.477V202.521C841.557 202.348 842.443 202.088 843.294 201.722C846.021 200.559 848.226 198.3 848.782 195C849.094 193.193 848.956 191.474 848.261 189.892C847.583 188.329 846.489 187.182 845.326 186.332C843.207 184.803 840.411 183.951 838.31 183.309L838.171 183.274C835.705 182.527 834.037 182.006 832.978 181.293C832.526 180.981 832.388 180.773 832.353 180.685C832.318 180.634 832.231 180.408 832.335 179.817C832.388 179.487 832.665 178.914 833.759 178.41C834.871 177.906 836.608 177.629 838.726 177.958C839.473 178.08 841.835 178.532 842.495 178.705C844.353 179.192 846.246 178.097 846.75 176.239C847.254 174.38 846.142 172.487 844.284 171.983C843.52 171.774 841.783 171.427 840.637 171.218V170.124H840.602Z" fill="#465FB1"/>
</g>
<defs>
<clipPath id="clip0_70_2">
<rect width="1986" height="512" fill="white"/>
</clipPath>
</defs>
</svg>
