<svg width="1453" height="592" viewBox="0 0 1453 592" fill="none" xmlns="http://www.w3.org/2000/svg">
<g clip-path="url(#clip0_14_2)">
<g clip-path="url(#clip1_14_2)">
<path d="M224 336C294.7 336 352 278.7 352 208C352 137.3 294.7 80 224 80C153.3 80 96 137.3 96 208C96 278.7 153.3 336 224 336ZM178.3 384C79.8 384 0 463.8 0 562.3C0 578.7 13.3 592 29.7 592H418.3C434.7 592 448 578.7 448 562.3C448 463.8 368.2 384 269.7 384H178.3Z" fill="#465FB1"/>
</g>
<g clip-path="url(#clip2_14_2)">
<path d="M1229 80C1299.7 80 1357 137.3 1357 208C1357 278.7 1299.7 336 1229 336C1158.3 336 1101 278.7 1101 208C1101 137.3 1158.3 80 1229 80ZM1214.1 439.2L1195.5 408.2C1189.1 397.5 1196.8 384 1209.2 384H1229H1248.7C1261.1 384 1268.8 397.6 1262.4 408.2L1243.8 439.2L1277.2 563.1L1316.7 401.9C1393.9 413.9 1453 480.7 1453 561.3C1453 578.3 1439.2 592 1422.3 592H1270.1H1187.9H1035.7C1018.8 592 1005 578.2 1005 561.3C1005 480.7 1064.1 413.9 1141.3 401.9L1180.8 563.1L1214.2 439.2H1214.1Z" fill="#465FB1"/>
</g>
<g clip-path="url(#clip3_14_2)">
<path d="M909 21C1001.79 21 1076.98 82.0969 1076.98 157.5C1076.98 188.757 1063.92 217.383 1042.26 240.319C1052.02 266.241 1072.36 288.146 1072.69 288.389C1077.04 292.983 1078.19 299.709 1075.73 305.452C1073.18 311.194 1067.56 315 1061.25 315C1020.89 315 989.653 298.102 969.966 284.648C951.591 290.588 930.459 294 909 294C816.206 294 741.591 232.883 741.591 157.5C741.591 82.1166 816.206 21 909 21ZM908.934 262.5C926.489 262.5 943.794 259.793 960.371 254.546L975.301 249.87L988.098 258.894C997.449 265.535 1010.33 272.925 1025.83 277.925C1020.99 269.971 1016.4 261.027 1012.79 251.511L1005.82 233.136L1019.35 218.784C1031.18 206.128 1045.45 185.194 1045.45 157.5C1045.45 99.5859 984.259 52.5 908.954 52.5C833.649 52.5 772.454 99.5859 772.454 157.5C772.454 215.414 833.663 262.5 908.934 262.5Z" fill="#465fb1"/>
<path d="M924.695 88.256C931.805 89.6719 936.426 96.561 935.004 103.641L934.375 106.745C932.926 114.015 930.246 120.932 926.5 127.222H965.875C973.121 127.222 979 133.076 979 140.292C979 147.181 973.668 152.818 966.887 153.335C968.992 155.649 970.25 158.726 970.25 162.076C970.25 168.447 965.656 173.757 959.613 174.901C960.816 176.861 961.5 179.203 961.5 181.681C961.5 187.481 957.699 192.41 952.449 194.098C952.641 194.996 952.75 195.949 952.75 196.93C952.75 204.146 946.871 210 939.625 210H919.527C914.332 210 909.273 208.475 904.953 205.616L894.426 198.618C887.125 193.771 882.75 185.602 882.75 176.861V166.432V153.362V146.582C882.75 138.631 886.387 131.143 892.594 126.16L894.617 124.553C901.863 118.78 906.813 110.666 908.617 101.626L909.246 98.5216C910.668 91.4418 917.586 86.84 924.695 88.256V88.256ZM847.75 131.578H865.25C870.09 131.578 874 135.472 874 140.292V201.286C874 206.106 870.09 210 865.25 210H847.75C842.91 210 839 206.106 839 201.286V140.292C839 135.472 842.91 131.578 847.75 131.578Z" fill="#465fb1"/>
</g>
<g clip-path="url(#clip4_14_2)">
<path d="M548 21C455.206 21 380.018 82.0969 380.018 157.5C380.018 188.757 393.084 217.383 414.74 240.319C404.975 266.241 384.638 288.146 384.31 288.389C379.962 292.983 378.814 299.709 381.275 305.452C383.818 311.194 389.437 315 395.75 315C436.109 315 467.347 298.102 487.034 284.648C505.409 290.588 526.541 294 548 294C640.794 294 715.409 232.883 715.409 157.5C715.409 82.1166 640.794 21 548 21ZM548.066 262.5C530.511 262.5 513.206 259.793 496.629 254.546L481.699 249.87L468.902 258.894C459.551 265.535 446.668 272.925 431.168 277.925C436.008 269.971 440.598 261.027 444.214 251.511L451.183 233.136L437.652 218.784C425.819 206.128 411.546 185.194 411.546 157.5C411.546 99.5859 472.741 52.5 548.046 52.5C623.351 52.5 684.546 99.5859 684.546 157.5C684.546 215.414 623.337 262.5 548.066 262.5Z" fill="#465fb1"/>
<g clip-path="url(#clip5_14_2)">
<path d="M563.25 116.875H532.75L521.455 99.9332C519.764 97.3836 521.575 94 524.625 94H571.375C574.425 94 576.236 97.3836 574.545 99.9332L563.25 116.875ZM532.75 124.5H563.25C564.155 125.096 565.18 125.763 566.348 126.502C579.858 135.151 609 153.785 609 193.125C609 205.754 598.754 216 586.125 216H509.875C497.246 216 487 205.754 487 193.125C487 153.785 516.142 135.151 529.652 126.502C530.796 125.763 531.845 125.096 532.75 124.5ZM552.789 147.375C552.789 144.73 550.645 142.586 548 142.586C545.355 142.586 543.211 144.73 543.211 147.375V148.805C541.876 149.091 540.613 149.496 539.422 150.02C535.848 151.64 532.774 154.643 532.011 159.003C531.582 161.434 531.821 163.769 532.821 165.913C533.822 168.01 535.371 169.487 536.944 170.56C539.708 172.442 543.354 173.538 546.141 174.372L546.666 174.539C549.978 175.54 552.241 176.302 553.647 177.327C554.243 177.756 554.457 178.089 554.553 178.304C554.624 178.495 554.767 178.923 554.6 179.9C554.457 180.734 554.005 181.425 552.694 181.997C551.241 182.617 548.882 182.927 545.832 182.45C544.402 182.212 541.852 181.354 539.589 180.568C539.064 180.377 538.564 180.21 538.087 180.067C535.586 179.233 532.893 180.591 532.059 183.093C531.225 185.595 532.583 188.288 535.085 189.122C535.371 189.217 535.729 189.336 536.134 189.479C538.016 190.123 540.971 191.123 543.234 191.648V193.125C543.234 195.77 545.379 197.914 548.024 197.914C550.669 197.914 552.813 195.77 552.813 193.125V191.814C554.1 191.576 555.315 191.219 556.483 190.718C560.224 189.122 563.25 186.024 564.013 181.497C564.441 179.019 564.251 176.66 563.298 174.491C562.368 172.347 560.867 170.774 559.271 169.607C556.364 167.51 552.527 166.342 549.644 165.461L549.454 165.413C546.07 164.388 543.782 163.673 542.329 162.696C541.709 162.268 541.519 161.982 541.471 161.862C541.423 161.791 541.304 161.481 541.447 160.671C541.519 160.218 541.9 159.432 543.401 158.741C544.926 158.05 547.309 157.669 550.216 158.121C551.241 158.288 554.481 158.908 555.387 159.146C557.936 159.813 560.534 158.312 561.225 155.763C561.916 153.213 560.391 150.616 557.841 149.925C556.793 149.639 554.41 149.162 552.837 148.876V147.375H552.789Z" fill="#465fb1"/>
</g>
</g>
</g>
<defs>
<clipPath id="clip0_14_2">
<rect width="1453" height="592" fill="white"/>
</clipPath>
<clipPath id="clip1_14_2">
<rect width="448" height="512" fill="white" transform="translate(0 80)"/>
</clipPath>
<clipPath id="clip2_14_2">
<rect width="448" height="512" fill="white" transform="translate(1005 80)"/>
</clipPath>
<clipPath id="clip3_14_2">
<rect width="336" height="336" fill="white" transform="matrix(-1 0 0 1 1077 0)"/>
</clipPath>
<clipPath id="clip4_14_2">
<rect width="336" height="336" fill="white" transform="translate(380)"/>
</clipPath>
<clipPath id="clip5_14_2">
<rect width="122" height="122" fill="white" transform="translate(487 94)"/>
</clipPath>
</defs>
</svg>
